<svg xmlns="http://www.w3.org/2000/svg" xmlns:xlink="http://www.w3.org/1999/xlink" version="1.1" width="256" height="256" viewBox="0 0 256 256" xml:space="preserve">
<g style="stroke: none; stroke-width: 0; stroke-dasharray: none; stroke-linecap: butt; stroke-linejoin: miter; stroke-miterlimit: 10; fill: none; fill-rule: nonzero; opacity: 1;" transform="translate(1.4065934065934016 1.4065934065934016) scale(2.81 2.81)">
	<path d="M 45 90 C 20.187 90 0 69.813 0 45 C 0 20.187 20.187 0 45 0 c 24.813 0 45 20.187 45 45 C 90 69.813 69.813 90 45 90 z M 45 6 C 23.495 6 6 23.495 6 45 s 17.495 39 39 39 s 39 -17.495 39 -39 S 66.505 6 45 6 z" style="stroke: none; stroke-width: 1; stroke-dasharray: none; stroke-linecap: butt; stroke-linejoin: miter; stroke-miterlimit: 10; fill: rgb(0,0,0); fill-rule: nonzero; opacity: 1;" transform=" matrix(1 0 0 1 0 0) " stroke-linecap="round"/>
	<path d="M 20.011 32.529 c 0.378 -3.324 3.114 -5.881 6.455 -6.035 h 28.437 c 2.064 0.17 3.943 1.258 5.119 2.964 c 0.523 0.767 0.892 1.629 1.086 2.537 l 8.357 -4.144 c 0.183 -0.092 0.406 -0.017 0.498 0.166 c 0.019 0.037 0.031 0.077 0.036 0.119 c 0 1.565 0 3.123 0 4.699 c 0.007 0.321 -0.185 0.614 -0.482 0.736 c -7.688 3.813 -15.378 7.63 -23.068 11.453 l 23.016 11.387 c 0.301 0.104 0.511 0.377 0.534 0.694 c 0 1.569 0 3.123 0 4.706 c 0.001 0.213 -0.17 0.386 -0.383 0.388 c -0.083 0.001 -0.165 -0.026 -0.232 -0.075 c -2.742 -1.388 -5.522 -2.697 -8.242 -4.113 c -0.183 0.658 -0.427 1.297 -0.729 1.909 c -0.932 1.715 -2.543 2.959 -4.439 3.425 c -0.627 0.132 -1.268 0.184 -1.909 0.156 H 27.562 c -0.597 0 -1.197 0 -1.791 -0.045 c -3.078 -0.461 -5.451 -2.952 -5.761 -6.049 c 0 -1.517 0 -3.037 0 -4.553 c 0.051 -0.388 0.322 -0.711 0.694 -0.829 c 4.727 -2.336 9.443 -4.692 14.177 -7.017 c -4.768 -2.374 -9.54 -4.741 -14.316 -7.101 c -0.332 -0.146 -0.546 -0.474 -0.548 -0.836 C 20.011 35.558 19.986 34.042 20.011 32.529 z M 25.279 32.56 c -0.285 0.573 -0.153 1.236 -0.177 1.853 c 5.206 2.572 10.373 5.157 15.569 7.711 c 5.134 -2.545 10.27 -5.09 15.409 -7.635 c 0 -0.462 0.021 -0.923 0 -1.388 c -0.125 -0.86 -0.867 -1.494 -1.735 -1.485 h -27.48 c -0.669 -0.022 -1.289 0.346 -1.589 0.944 H 25.279 z M 25.102 55.59 c 0.024 0.625 -0.111 1.298 0.191 1.878 c 0.309 0.581 0.921 0.938 1.579 0.92 h 27.497 c 0.62 0.005 1.195 -0.325 1.503 -0.864 c 0.347 -0.607 0.187 -1.336 0.222 -2.002 c -5.147 -2.54 -10.287 -5.122 -15.444 -7.635 c -5.199 2.568 -10.383 5.136 -15.551 7.705 H 25.102 z" style="stroke: none; stroke-width: 1; stroke-dasharray: none; stroke-linecap: butt; stroke-linejoin: miter; stroke-miterlimit: 10; fill: rgb(0,0,0); fill-rule: nonzero; opacity: 1;" transform=" matrix(1 0 0 1 0 0) " stroke-linecap="round"/>
</g>
</svg>